<svg width="26" height="25" viewBox="0 0 26 25" fill="none" xmlns="http://www.w3.org/2000/svg">
<path d="M11.9219 24.7852C11.6172 24.7852 11.3594 24.6992 11.1484 24.5273C10.9453 24.3633 10.8047 24.1289 10.7266 23.8242L10.1172 21.2461C9.89062 21.168 9.66797 21.0859 9.44922 21C9.23047 20.9141 9.02344 20.8242 8.82812 20.7305L6.57812 22.1133C6.32031 22.2695 6.05469 22.3359 5.78125 22.3125C5.51562 22.2891 5.27734 22.1719 5.06641 21.9609L3.56641 20.4609C3.35547 20.25 3.23438 20.0039 3.20312 19.7227C3.17969 19.4414 3.25391 19.1758 3.42578 18.9258L4.79688 16.6875C4.70312 16.4844 4.61328 16.2773 4.52734 16.0664C4.44141 15.8555 4.36719 15.6445 4.30469 15.4336L1.70312 14.8125C1.39844 14.7422 1.16406 14.6055 1 14.4023C0.835938 14.1914 0.753906 13.9336 0.753906 13.6289V11.5078C0.753906 11.2109 0.835938 10.9609 1 10.7578C1.16406 10.5469 1.39844 10.4062 1.70312 10.3359L4.28125 9.71484C4.35156 9.47266 4.42969 9.24609 4.51562 9.03516C4.60938 8.82422 4.69531 8.625 4.77344 8.4375L3.40234 6.16406C3.23828 5.90625 3.16406 5.64453 3.17969 5.37891C3.20312 5.11328 3.32422 4.875 3.54297 4.66406L5.06641 3.15234C5.27734 2.94141 5.51172 2.82031 5.76953 2.78906C6.02734 2.75781 6.28516 2.82031 6.54297 2.97656L8.81641 4.38281C9.01172 4.28125 9.21875 4.1875 9.4375 4.10156C9.66406 4.00781 9.89062 3.92188 10.1172 3.84375L10.7266 1.25391C10.8047 0.957031 10.9453 0.722656 11.1484 0.550781C11.3594 0.378906 11.6172 0.292969 11.9219 0.292969H14.0781C14.3828 0.292969 14.6367 0.378906 14.8398 0.550781C15.0508 0.722656 15.1914 0.957031 15.2617 1.25391L15.8711 3.86719C16.1133 3.94531 16.3398 4.02734 16.5508 4.11328C16.7695 4.19922 16.9727 4.29297 17.1602 4.39453L19.457 2.97656C19.707 2.82031 19.957 2.76172 20.207 2.80078C20.4648 2.83984 20.7031 2.95703 20.9219 3.15234L22.457 4.66406C22.6758 4.875 22.793 5.11328 22.8086 5.37891C22.8242 5.64453 22.7539 5.90625 22.5977 6.16406L21.2148 8.4375C21.293 8.625 21.375 8.82422 21.4609 9.03516C21.5547 9.24609 21.6406 9.47266 21.7188 9.71484L24.2969 10.3359C24.5938 10.4062 24.8242 10.5469 24.9883 10.7578C25.1602 10.9609 25.2461 11.2109 25.2461 11.5078V13.6289C25.2461 13.9336 25.1602 14.1914 24.9883 14.4023C24.8242 14.6055 24.5938 14.7422 24.2969 14.8125L21.6953 15.4336C21.625 15.6445 21.5469 15.8555 21.4609 16.0664C21.3828 16.2773 21.293 16.4844 21.1914 16.6875L22.5742 18.9258C22.7461 19.1758 22.8164 19.4414 22.7852 19.7227C22.7617 20.0039 22.6445 20.25 22.4336 20.4609L20.9219 21.9609C20.7109 22.1719 20.4688 22.2891 20.1953 22.3125C19.9297 22.3359 19.6719 22.2695 19.4219 22.1133L17.1602 20.7305C16.9648 20.8242 16.7578 20.9141 16.5391 21C16.3203 21.0859 16.0977 21.168 15.8711 21.2461L15.2617 23.8242C15.1914 24.1289 15.0508 24.3633 14.8398 24.5273C14.6367 24.6992 14.3828 24.7852 14.0781 24.7852H11.9219ZM13 16.6758C13.7578 16.6758 14.4492 16.4922 15.0742 16.125C15.6992 15.75 16.1992 15.25 16.5742 14.625C16.9492 13.9922 17.1367 13.2969 17.1367 12.5391C17.1367 11.7812 16.9492 11.0898 16.5742 10.4648C16.1992 9.83203 15.6992 9.33203 15.0742 8.96484C14.4492 8.58984 13.7578 8.40234 13 8.40234C12.2344 8.40234 11.5391 8.58984 10.9141 8.96484C10.2891 9.33203 9.78906 9.83203 9.41406 10.4648C9.04688 11.0898 8.86328 11.7812 8.86328 12.5391C8.86328 13.2969 9.04688 13.9922 9.41406 14.625C9.78906 15.25 10.2891 15.75 10.9141 16.125C11.5391 16.4922 12.2344 16.6758 13 16.6758Z" fill="white"/>
</svg>
