<svg width="24" height="23" viewBox="0 0 24 23" fill="none" xmlns="http://www.w3.org/2000/svg">
<path d="M3.99609 22.3438C2.76953 22.3438 1.84766 22.0391 1.23047 21.4297C0.621094 20.8281 0.316406 19.9219 0.316406 18.7109V4.40234C0.316406 3.19141 0.621094 2.28516 1.23047 1.68359C1.84766 1.07422 2.76953 0.769531 3.99609 0.769531H20.0039C21.2305 0.769531 22.1484 1.07422 22.7578 1.68359C23.3672 2.28516 23.6719 3.19141 23.6719 4.40234V18.7109C23.6719 19.9219 23.3672 20.8281 22.7578 21.4297C22.1484 22.0391 21.2305 22.3438 20.0039 22.3438H3.99609ZM3.82031 20.457H20.1562C20.6797 20.457 21.082 20.3164 21.3633 20.0352C21.6445 19.7617 21.7852 19.3555 21.7852 18.8164V7.76562C21.7852 7.22656 21.6445 6.82031 21.3633 6.54688C21.082 6.26562 20.6797 6.125 20.1562 6.125H3.82031C3.30469 6.125 2.90625 6.26562 2.625 6.54688C2.34375 6.82031 2.20312 7.22656 2.20312 7.76562V18.8164C2.20312 19.3555 2.34375 19.7617 2.625 20.0352C2.90625 20.3164 3.30469 20.457 3.82031 20.457ZM5.85938 10.4844C5.64844 10.4844 5.47266 10.4141 5.33203 10.2734C5.19141 10.1328 5.12109 9.95703 5.12109 9.74609C5.12109 9.55078 5.19141 9.38672 5.33203 9.25391C5.47266 9.11328 5.64844 9.04297 5.85938 9.04297H18.1641C18.375 9.04297 18.5469 9.11328 18.6797 9.25391C18.8203 9.38672 18.8906 9.55078 18.8906 9.74609C18.8906 9.95703 18.8203 10.1328 18.6797 10.2734C18.5469 10.4141 18.375 10.4844 18.1641 10.4844H5.85938ZM5.85938 14.0117C5.64844 14.0117 5.47266 13.9453 5.33203 13.8125C5.19141 13.6719 5.12109 13.5039 5.12109 13.3086C5.12109 13.1055 5.19141 12.9336 5.33203 12.793C5.47266 12.6445 5.64844 12.5703 5.85938 12.5703H18.1641C18.375 12.5703 18.5469 12.6445 18.6797 12.793C18.8203 12.9336 18.8906 13.1055 18.8906 13.3086C18.8906 13.5039 18.8203 13.6719 18.6797 13.8125C18.5469 13.9453 18.375 14.0117 18.1641 14.0117H5.85938ZM5.85938 17.5508C5.64844 17.5508 5.47266 17.4844 5.33203 17.3516C5.19141 17.2109 5.12109 17.0391 5.12109 16.8359C5.12109 16.6328 5.19141 16.4609 5.33203 16.3203C5.47266 16.1797 5.64844 16.1094 5.85938 16.1094H13.6758C13.8867 16.1094 14.0586 16.1797 14.1914 16.3203C14.332 16.4609 14.4023 16.6328 14.4023 16.8359C14.4023 17.0391 14.332 17.2109 14.1914 17.3516C14.0586 17.4844 13.8867 17.5508 13.6758 17.5508H5.85938Z" fill="white"/>
</svg>
