<svg width="32" height="32" viewBox="0 0 32 32" fill="none" xmlns="http://www.w3.org/2000/svg">
<path d="M2.20703 29.7109C1.59766 29.7109 1.09766 29.5078 0.707031 29.1016C0.316406 28.6953 0.121094 28.168 0.121094 27.5195V25.293C0.121094 24.7539 0.203125 24.2695 0.367188 23.8398C0.53125 23.4102 0.796875 22.9922 1.16406 22.5859C1.53125 22.1797 2.02344 21.7344 2.64062 21.25C2.89844 21.0391 3.09766 20.7969 3.23828 20.5234C3.37891 20.2422 3.47656 19.8516 3.53125 19.3516C3.58594 18.8516 3.61328 18.1719 3.61328 17.3125C3.61328 16.4531 3.67578 15.6797 3.80078 14.9922C3.92578 14.2969 4.10938 13.6641 4.35156 13.0938L3.37891 11.9688C3.09766 11.6406 2.94531 11.3125 2.92188 10.9844C2.90625 10.6562 2.98047 10.3633 3.14453 10.1055C3.30859 9.83984 3.52734 9.64453 3.80078 9.51953C4.08203 9.38672 4.38281 9.35547 4.70312 9.42578C5.02344 9.48828 5.32812 9.69141 5.61719 10.0352L6.49609 11.0898C6.57422 11.0586 6.66406 11.0273 6.76562 10.9961C6.875 10.9648 6.99609 10.9453 7.12891 10.9375L17.1602 10.1523C17.9883 9.86328 18.6172 9.55469 19.0469 9.22656C19.4844 8.89062 19.832 8.53516 20.0898 8.16016C20.3555 7.78516 20.6406 7.38672 20.9453 6.96484C21.2422 7.48047 21.6172 7.93359 22.0703 8.32422C22.5312 8.70703 23.0742 8.89844 23.6992 8.89844C24.207 8.89844 24.6602 8.76953 25.0586 8.51172C25.4648 8.24609 25.8125 7.91406 26.1016 7.51562C26.3984 7.10937 26.6406 6.67969 26.8281 6.22656C27.0156 5.77344 27.1484 5.35938 27.2266 4.98438C27.6797 5.23437 28.0859 5.55469 28.4453 5.94531C28.8047 6.33594 29.2422 6.69922 29.7578 7.03516C30.1484 7.28516 30.5039 7.48437 30.8242 7.63281C31.1445 7.77344 31.3984 7.9375 31.5859 8.125C31.7812 8.30469 31.8789 8.58203 31.8789 8.95703C31.8789 9.48828 31.7656 10.0039 31.5391 10.5039C31.3125 11.0039 31.0078 11.4531 30.625 11.8516C30.25 12.2422 29.8242 12.5547 29.3477 12.7891C28.8711 13.0156 28.3828 13.1289 27.8828 13.1289C27.4297 13.1289 27.0156 13.0586 26.6406 12.918C26.2656 12.7773 25.8438 12.5664 25.375 12.2852C25.2422 12.4414 25.1094 12.6953 24.9766 13.0469C24.8516 13.3984 24.7891 13.8633 24.7891 14.4414C24.7891 15.2695 24.6836 16.0195 24.4727 16.6914C24.2617 17.3555 24.0039 18.0195 23.6992 18.6836C23.4023 19.3398 23.1172 20.0703 22.8438 20.875C22.75 21.1641 22.6406 21.5195 22.5156 21.9414C22.3906 22.3633 22.2656 22.8125 22.1406 23.2891C22.0156 23.7578 21.8984 24.2109 21.7891 24.6484C21.6875 25.0781 21.6094 25.4414 21.5547 25.7383C21.5 26.0117 21.6172 26.1758 21.9062 26.2305C22.5469 26.3242 23 26.4961 23.2656 26.7461C23.5312 26.9961 23.6641 27.375 23.6641 27.8828C23.6641 28.3672 23.4766 28.793 23.1016 29.1602C22.7344 29.5273 22.2188 29.7109 21.5547 29.7109H19.5859C18.8906 29.7109 18.332 29.4883 17.9102 29.043C17.4883 28.6055 17.2773 28.0312 17.2773 27.3203C17.2773 27.0156 17.2891 26.6484 17.3125 26.2188C17.3359 25.7969 17.3672 25.3477 17.4062 24.8711C17.4453 24.3867 17.4766 23.9023 17.5 23.418C17.5312 22.9258 17.5469 22.4648 17.5469 22.0352C16.8125 22.1289 16.082 22.1836 15.3555 22.1992C14.6289 22.2148 13.9336 22.1875 13.2695 22.1172C12.6055 22.0391 11.9883 21.9102 11.418 21.7305C10.8477 21.543 10.3438 21.293 9.90625 20.9805C9.73438 22.2617 9.22656 23.2773 8.38281 24.0273C7.53906 24.7695 6.40234 25.2539 4.97266 25.4805C4.74609 25.5039 4.63281 25.625 4.63281 25.8438C4.64062 26.0703 4.77734 26.1992 5.04297 26.2305C5.60547 26.2852 6.02344 26.4375 6.29688 26.6875C6.57812 26.9375 6.71875 27.3242 6.71875 27.8477C6.71875 28.3477 6.53125 28.7812 6.15625 29.1484C5.78906 29.5234 5.26953 29.7109 4.59766 29.7109H2.20703ZM27.8242 9.08594C28.0273 9.08594 28.1992 9.01562 28.3398 8.875C28.4805 8.73438 28.5508 8.55859 28.5508 8.34766C28.5508 8.13672 28.4805 7.96484 28.3398 7.83203C28.1992 7.69141 28.0273 7.62109 27.8242 7.62109C27.6055 7.62109 27.4258 7.69141 27.2852 7.83203C27.1445 7.96484 27.0742 8.13672 27.0742 8.34766C27.0742 8.55859 27.1445 8.73438 27.2852 8.875C27.4258 9.01562 27.6055 9.08594 27.8242 9.08594ZM23.6992 7.83203C23.2773 7.83203 22.9062 7.68359 22.5859 7.38672C22.2734 7.08984 22.0117 6.73437 21.8008 6.32031C21.5898 5.89844 21.4297 5.49219 21.3203 5.10156C21.2109 4.70312 21.1562 4.40234 21.1562 4.19922C21.1562 3.47266 21.5312 3.10938 22.2812 3.10938H25.1289C25.8711 3.10938 26.2422 3.47266 26.2422 4.19922C26.2422 4.40234 26.1875 4.70312 26.0781 5.10156C25.9688 5.49219 25.8086 5.89844 25.5977 6.32031C25.3867 6.73437 25.1211 7.08984 24.8008 7.38672C24.4805 7.68359 24.1133 7.83203 23.6992 7.83203Z" fill="white"/>
</svg>
